<svg xmlns="http://www.w3.org/2000/svg" width="512" height="512" viewBox="0 0 512 512">
  <defs>
    <linearGradient id="bg" x1="0" y1="0" x2="1" y2="1">
      <stop offset="0" stop-color="#2a7a8a"/>
      <stop offset="0.55" stop-color="#3d5a6c"/>
      <stop offset="1" stop-color="#2c3e50"/>
    </linearGradient>
  </defs>
  <rect width="512" height="512" rx="112" fill="url(#bg)"/>
  <g stroke="rgba(255,255,255,0.10)" stroke-width="4">
    <path d="M128 96 V416 M192 96 V416 M256 96 V416 M320 96 V416 M384 96 V416"/>
    <path d="M96 128 H416 M96 192 H416 M96 256 H416 M96 320 H416 M96 384 H416"/>
  </g>
  <g stroke-width="34" stroke-linecap="round" fill="none">
    <g stroke="#ffd54a"><path d="M150 150 L226 226 M226 150 L150 226"/></g>
    <g stroke="#4aa3ff"><path d="M286 150 L362 226 M362 150 L286 226"/></g>
    <g stroke="#5ad17a"><path d="M150 286 L226 362 M226 286 L150 362"/></g>
    <g stroke="#ff8a3d"><path d="M286 286 L362 362 M362 286 L286 362"/></g>
  </g>
</svg>
